<?xml version="1.0" standalone="no"?>
<!DOCTYPE svg PUBLIC "-//W3C//DTD SVG 20010904//EN"
 "http://www.w3.org/TR/2001/REC-SVG-20010904/DTD/svg10.dtd">
<svg version="1.0" xmlns="http://www.w3.org/2000/svg"
 width="64.000000pt" height="64.000000pt" viewBox="0 0 64.000000 64.000000"
 preserveAspectRatio="xMidYMid meet">
<metadata>
Created by potrace 1.10, written by Peter Selinger 2001-2011
</metadata>
<g transform="translate(0.000000,64.000000) scale(0.100000,-0.100000)"
fill="#2e6fab" stroke="none">
<path d="M245 631 c-92 -24 -173 -90 -215 -176 -19 -41 -24 -66 -24 -135 -1
-78 2 -90 33 -148 38 -70 70 -100 145 -140 43 -22 64 -26 136 -26 72 0 93 4
136 26 75 40 107 70 145 140 31 58 34 70 33 148 0 72 -4 93 -26 136 -39 75
-70 107 -137 143 -65 34 -164 49 -226 32z m265 -181 c18 -18 20 -33 20 -130 0
-155 7 -150 -210 -150 -217 0 -210 -5 -210 150 0 155 -7 150 210 150 157 0
172 -2 190 -20z"/>
<path d="M190 427 c0 -2 29 -27 65 -55 l65 -53 65 53 c36 28 65 53 65 55 0 2
-58 3 -130 3 -72 0 -130 -1 -130 -3z"/>
<path d="M150 311 l0 -101 170 0 170 0 0 101 c0 80 -3 99 -12 92 -7 -5 -46
-36 -85 -67 l-73 -58 -72 58 c-40 31 -79 62 -85 67 -10 7 -13 -12 -13 -92z"/>
</g>
</svg>
