 <svg  version="1.0" xmlns="http://www.w3.org/2000/svg"  width="105.000000pt" height="81.000000pt" viewBox="0 0 105.000000 81.000000"  preserveAspectRatio="xMidYMid meet">  <g transform="translate(0.000000,81.000000) scale(0.050000,-0.050000)" fill="#698781" stroke="none"> <path d="M1426 1545 c-49 -113 -68 -256 -56 -425 13 -170 13 -170 -60 -290 -103 -170 -104 -169 -85 25 21 212 24 193 -97 655 -14 52 -18 44 -30 -70 -8 -71 -21 -177 -29 -234 -13 -96 -9 -113 52 -208 129 -201 89 -376 -124 -547 -179 -142 -183 -140 -98 34 101 205 102 375 3 535 -37 61 -70 142 -73 180 -2 39 -12 68 -22 65 -58 -18 -48 -315 15 -463 87 -200 34 -440 -111 -503 -223 -98 -236 -68 -64 148 62 79 65 100 46 403 -14 216 -29 237 -66 90 -16 -60 -46 -146 -67 -190 -54 -112 -69 -232 -41 -318 28 -82 -31 -212 -96 -212 -54 0 -351 -102 -382 -132 -51 -48 -12 -48 91 0 296 137 532 157 654 55 104 -87 189 -111 363 -99 l98 6 -126 65 c-93 48 -154 65 -229 66 -89 0 -172 31 -172 64 0 53 304 96 381 54 108 -58 519 -35 519 29 0 37 -321 51 -570 26 l-120 -13 110 99 c151 135 275 173 373 116 60 -36 87 -39 193 -26 68 9 158 15 199 14 77 -3 102 28 40 50 -19 6 -83 33 -141 59 -131 58 -119 59 -324 -11 -200 -68 -203 -67 -122 35 34 43 62 86 63 96 2 59 112 95 298 99 192 3 461 93 461 153 0 53 -365 2 -527 -74 -189 -89 -191 -88 -102 54 59 93 90 121 195 171 84 40 170 106 268 205 134 135 171 202 90 161 -19 -9 -67 -31 -108 -49 -151 -64 -273 -173 -381 -338 -101 -156 -160 -178 -82 -31 25 46 37 127 43 271 9 207 -6 251 -50 150z"/> </g> </svg> 