 <svg  version="1.0" xmlns="http://www.w3.org/2000/svg"  width="300.000000pt" height="300.000000pt" viewBox="0 0 300.000000 300.000000"  preserveAspectRatio="xMidYMid meet">  <g transform="translate(0.000000,300.000000) scale(0.100000,-0.100000)" fill="#2e6fab" stroke="none"> <path d="M1295 2984 c-335 -51 -593 -177 -828 -404 -259 -249 -399 -522 -451 -881 -34 -232 -5 -500 79 -725 42 -109 130 -271 199 -364 83 -111 259 -280 366 -351 313 -208 685 -295 1039 -243 201 29 326 69 501 160 139 72 253 159 376 285 444 458 549 1137 264 1709 -98 195 -272 403 -450 536 -93 69 -255 157 -364 199 -223 83 -505 114 -731 79z m-148 -856 c95 -96 154 -163 159 -181 6 -25 -3 -37 -94 -130 -55 -56 -105 -112 -111 -124 -6 -12 -11 -42 -11 -66 0 -40 7 -54 69 -134 114 -148 350 -362 440 -400 63 -27 94 -12 212 103 84 82 113 104 135 104 23 0 57 -29 186 -158 192 -192 190 -186 89 -283 -43 -42 -96 -80 -138 -101 -59 -29 -79 -33 -158 -36 -84 -3 -97 -1 -207 38 -213 76 -395 197 -588 390 -180 179 -291 342 -376 550 -35 86 -39 104 -39 185 0 135 25 193 133 306 119 125 109 128 299 -63z"/> </g> </svg> 